<svg id="visual" viewBox="0 0 960 540" width="960" height="540" xmlns="http://www.w3.org/2000/svg" xmlns:xlink="http://www.w3.org/1999/xlink" version="1.1"><rect x="0" y="0" width="960" height="540" fill="#001220"></rect><defs><linearGradient id="grad1_0" x1="43.8%" y1="100%" x2="100%" y2="0%"><stop offset="14.444444444444446%" stop-color="#001220" stop-opacity="1"></stop><stop offset="85.55555555555554%" stop-color="#001220" stop-opacity="1"></stop></linearGradient></defs><defs><linearGradient id="grad2_0" x1="0%" y1="100%" x2="56.3%" y2="0%"><stop offset="14.444444444444446%" stop-color="#001220" stop-opacity="1"></stop><stop offset="85.55555555555554%" stop-color="#001220" stop-opacity="1"></stop></linearGradient></defs><g transform="translate(960, 540)"><path d="M-324 0C-304.2 -35.2 -284.5 -70.4 -272.5 -112.9C-260.6 -155.3 -256.5 -205 -229.1 -229.1C-201.7 -253.2 -151.1 -251.7 -109.1 -263.3C-67 -274.9 -33.5 -299.4 0 -324L0 0Z" fill="#FBAE3C"></path></g><g transform="translate(0, 0)"><path d="M324 0C322.5 45.7 321.1 91.3 299.3 124C277.6 156.7 235.6 176.3 204.4 204.4C173.1 232.4 152.4 268.8 120.2 290.1C87.9 311.4 43.9 317.7 0 324L0 0Z" fill="#FBAE3C"></path></g></svg>